<svg width="20" height="20" viewBox="0 0 20 20" fill="none" xmlns="http://www.w3.org/2000/svg">
<path d="M10 2.009C7.238 2.009 5 4.238 5 6.999C5 11.773 10 17.999 10 17.999C10 17.999 15 11.772 15 6.999C15 4.239 12.762 2.009 10 2.009V2.009ZM10 9.76C9.28392 9.76 8.59716 9.47554 8.09081 8.96919C7.58446 8.46284 7.3 7.77608 7.3 7.06C7.3 6.34392 7.58446 5.65716 8.09081 5.15081C8.59716 4.64446 9.28392 4.36 10 4.36C10.7161 4.36 11.4028 4.64446 11.9092 5.15081C12.4155 5.65716 12.7 6.34392 12.7 7.06C12.7 7.77608 12.4155 8.46284 11.9092 8.96919C11.4028 9.47554 10.7161 9.76 10 9.76Z" fill="#EEE841"/>
</svg>
